<?xml version="1.0" encoding="utf-8"?>
<!-- Generator: Adobe Illustrator 22.1.0, SVG Export Plug-In . SVG Version: 6.00 Build 0)  -->
<svg version="1.1" id="Layer_1" xmlns="http://www.w3.org/2000/svg" xmlns:xlink="http://www.w3.org/1999/xlink" x="0px" y="0px"
	 viewBox="0 0 512 512" style="enable-background:new 0 0 512 512;" xml:space="preserve">
<style type="text/css">
	.st0{fill:#5B92E2;}
</style>
<g>
	<g>
		<path class="st0" d="M160.7,242.5c-6.4-6.4-16.7-6.4-23,0c-6.4,6.4-6.4,16.7,0,23l75,75c3.2,3.2,7.1,4.8,11.5,4.8
			c0.4,0,0.4,0,0.8,0c4.4-0.4,8.7-2.4,11.9-6l187.7-225c5.6-6.7,4.8-17.1-2-23c-6.7-5.6-17.1-4.8-23,2L223.1,304.8L160.7,242.5
			L160.7,242.5z"/>
		<path class="st0" d="M377.5,60.7C286.2,3.6,169.1,17.1,92.9,93.3C3.2,183,3.2,329.4,92.9,419.1c44.8,44.8,104,67.5,162.7,67.5
			s117.9-22.6,162.7-67.5c76.6-76.6,89.7-194.1,32.1-285.4c-4.8-7.5-14.7-9.9-22.2-5.2c-7.5,4.8-9.9,14.7-5.2,22.2
			c49.6,78.6,38.1,179.4-27.8,245.3c-77,77-202.8,77-279.8,0s-77-202.8,0-279.8c65.9-65.5,166.3-77,244.9-28.2
			c7.5,4.8,17.5,2.4,22.2-5.2C387.4,75.4,385,65.5,377.5,60.7L377.5,60.7z"/>
	</g>
</g>
</svg>
