<?xml version="1.0" encoding="utf-8"?>
<!-- Generator: Adobe Illustrator 22.1.0, SVG Export Plug-In . SVG Version: 6.00 Build 0)  -->
<svg version="1.1" id="Layer_1" xmlns="http://www.w3.org/2000/svg" xmlns:xlink="http://www.w3.org/1999/xlink" x="0px" y="0px"
	 viewBox="0 0 512 512" style="enable-background:new 0 0 512 512;" xml:space="preserve">
<style type="text/css">
	.st0{fill:#16374B;}
	.st1{fill:#D35933;}
	.st2{fill:#B54324;}
	.st3{fill:#FFC61B;}
	.st4{fill:#FEE187;}
	.st5{fill:#EAA22F;}
	.st6{fill:#E09112;}
	.st7{fill:#FF5419;}
</style>
<circle class="st0" cx="256" cy="256" r="256"/>
<path class="st1" d="M342.3,429.8h-65.5c-5.5,0-9.9-4.4-9.9-9.9V98.4c0-5.5,4.4-9.9,9.9-9.9h65.5c5.5,0,9.9,4.4,9.9,9.9v321.5
	C352.3,425.4,347.8,429.8,342.3,429.8z"/>
<path class="st2" d="M342.3,88.5h-30.6v341.3h30.6c5.5,0,9.9-4.4,9.9-9.9V98.4C352.3,92.9,347.8,88.5,342.3,88.5z"/>
<g>
	<rect x="266.9" y="113.5" class="st3" width="28.4" height="6.9"/>
	<rect x="266.9" y="170.4" class="st3" width="28.4" height="6.9"/>
	<rect x="266.9" y="141.9" class="st3" width="56.9" height="6.9"/>
	<rect x="266.9" y="227.3" class="st3" width="28.4" height="6.9"/>
	<rect x="266.9" y="198.8" class="st3" width="56.9" height="6.9"/>
	<rect x="266.9" y="284.2" class="st3" width="28.4" height="6.9"/>
	<rect x="266.9" y="255.7" class="st3" width="56.9" height="6.9"/>
	<rect x="266.9" y="341" class="st3" width="28.4" height="6.9"/>
	<rect x="266.9" y="397.9" class="st3" width="28.4" height="6.9"/>
	<rect x="266.9" y="312.6" class="st3" width="56.9" height="6.9"/>
	<rect x="266.9" y="369.5" class="st3" width="56.9" height="6.9"/>
</g>
<path class="st4" d="M193.4,189.1c-7.8,0-14.4,6.1-14.6,13.9c0,1.5,0,3.1,0.1,4.6l15.5,212.5c0.4,5.5,4.9,9.7,10.2,9.7
	s9.8-4.2,10.2-9.7l15.5-212.5c0.1-1.6,0.2-3.1,0.1-4.6c-0.2-7.8-6.8-13.9-14.6-13.9L193.4,189.1L193.4,189.1z"/>
<g>
	<path class="st3" d="M230.4,203c-0.2-7.8-6.8-13.9-14.6-13.9h-11.5v240.8c0.1,0,0.2,0,0.3,0c5.4,0,9.8-4.2,10.2-9.7l15.5-212.5
		C230.4,206,230.5,204.5,230.4,203z"/>
	<path class="st3" d="M230.3,207.6c0.1-1.6,0.2-3.1,0.1-4.6c-0.2-7.8-6.8-13.9-14.6-13.9h-22.4c-7.8,0-14.4,6.1-14.6,13.9
		c0,1.5,0,3.1,0.1,4.6l4.3,59.2H226L230.3,207.6z"/>
</g>
<path class="st5" d="M230.4,203c-0.2-7.8-6.8-13.9-14.6-13.9h-11.5v77.7H226l4.3-59.2C230.4,206,230.5,204.5,230.4,203z"/>
<path class="st6" d="M170.7,167.8c0-18.7,33.9-67.8,33.9-67.8s33.9,49.1,33.9,67.8s-15.2,33.9-33.9,33.9S170.7,186.5,170.7,167.8z"
	/>
<path class="st7" d="M204.6,100c0,0-0.1,0.2-0.3,0.4v101.3c0.1,0,0.2,0,0.3,0c18.7,0,33.9-15.2,33.9-33.9S204.6,100,204.6,100z"/>
</svg>
