<?xml version="1.0" encoding="utf-8"?>
<!-- Generator: Adobe Illustrator 22.1.0, SVG Export Plug-In . SVG Version: 6.00 Build 0)  -->
<svg version="1.1" id="Capa_1" xmlns="http://www.w3.org/2000/svg" xmlns:xlink="http://www.w3.org/1999/xlink" x="0px" y="0px"
	 viewBox="0 0 60 60" style="enable-background:new 0 0 60 60;" xml:space="preserve">
<style type="text/css">
	.st0{fill:#16374B;}
</style>
<g>
	<path class="st0" d="M6.2,39.3c-0.4-0.4-1-0.4-1.4,0l-2.5,2.5c-1.8,1.8-1.8,4.6,0,6.4c0.9,0.9,2,1.3,3.2,1.3c1.2,0,2.4-0.5,3.2-1.3
		c1.8-1.8,1.8-4.6,0-6.4L6.2,39.3z M7.3,46.8c-1,1-2.6,1-3.6,0c-1-1-1-2.6,0-3.6l1.8-1.8l1.8,1.8C8.3,44.2,8.3,45.8,7.3,46.8z"/>
	<path class="st0" d="M58.3,31L33.5,6.2c-1-1-2.6-0.9-4.6-0.1C28.2,2.6,25.2,0,21.5,0C17.4,0,14,3.4,14,7.5v9.8
		C7.5,24,2.6,31.9,5.2,34.5l7.1,7.1l-0.1,0.1c0,0,0,0,0,0l13,12.9l4.7,4.7c0.5,0.5,1.2,0.8,2,0.8c1.4,0,3.3-0.7,5.6-2
		c3.3-1.9,7.1-5,10.7-8.6s6.7-7.5,8.6-10.7C59.2,34.9,59.6,32.3,58.3,31z M48,35.7L37.4,25.1c-0.5-0.5-0.5-1.3,0-1.9
		c1.7-2,3.3-4.4,3.8-6.4l11,10.9C52.8,28.3,51.9,31.5,48,35.7z M31.5,7.4c0.3,0,0.5,0.1,0.6,0.2c0.6,0.6-0.2,3.4-3.1,7.5v-7
		C30.1,7.7,30.9,7.4,31.5,7.4z M21.5,2c2.8,0,5.2,2.2,5.5,4.9c-3.3,1.7-7.3,4.8-11,8.3V7.5C16,4.5,18.5,2,21.5,2z M16.6,17.5
		c4.1-4.1,7.7-6.8,10.5-8.4v8.7c-1.3,1.7-2.9,3.5-4.8,5.4C14,31.4,7.6,34,6.7,33.1C5.7,32.1,8.3,25.8,16.6,17.5z M26.7,53.2
		L15.8,42.3c0.8-0.2,1.8-0.6,2.8-1.1c0.4-0.2,0.9-0.1,1.2,0.2l10.5,10.5C28.3,53,27,53.5,26.7,53.2z M47,47.9
		c-8.2,8.2-14.6,10.9-15.6,9.9l-2.9-2.9c1-0.3,2-0.9,2.9-1.4c0.6-0.3,0.9-0.9,1-1.5c0.1-0.6-0.1-1.2-0.6-1.7L21.3,39.9
		c-0.9-0.9-2.3-1.1-3.5-0.5c-2.1,1.1-3.3,1.2-3.8,1.1l-5.3-5.3c1.2-0.3,2.6-0.9,4.2-1.9c2.2-1.3,4.7-3.1,7.2-5.3
		c0.1-0.1,0.2-0.2,0.4-0.3c0.3-0.2,0.5-0.5,0.8-0.7c0.2-0.2,0.4-0.4,0.6-0.6c0.2-0.2,0.4-0.3,0.6-0.5c0.4-0.4,0.8-0.8,1.2-1.2
		c0.4-0.4,0.9-0.9,1.3-1.3c0.7-0.8,1.4-1.5,2.1-2.3V30h2V18.5c1.3-1.6,2.4-3.2,3.2-4.7c1-1.6,1.6-3.1,1.9-4.2l5.2,5.2l-0.1,0.1
		c0.5,0.5,0,3.2-3.3,7.1c-1.2,1.4-1.1,3.3,0.2,4.6l10.6,10.6c0.4,0.4,0.9,0.6,1.4,0.6c0,0,0,0,0,0c0.5,0,1.1-0.2,1.4-0.6
		c2.2-2.4,4.1-5.2,4.6-7.4l2.7,2.7C57.8,33.3,55.2,39.7,47,47.9z"/>
	<path class="st0" d="M30.2,27.9c0.6,0.6,0.9,1.3,0.9,2.1s-0.3,1.6-0.9,2.1c-1.1,1.1-3.1,1.1-4.2,0C25.3,31.6,25,30.8,25,30
		s0.3-1.6,0.9-2.1l-1.4-1.4C23.6,27.4,23,28.7,23,30s0.5,2.6,1.5,3.5c0.9,0.9,2.2,1.5,3.5,1.5s2.6-0.5,3.5-1.5
		c0.9-0.9,1.5-2.2,1.5-3.5s-0.5-2.6-1.5-3.5L30.2,27.9z"/>
</g>
</svg>
