<?xml version="1.0" encoding="utf-8"?>
<!-- Generator: Adobe Illustrator 22.1.0, SVG Export Plug-In . SVG Version: 6.00 Build 0)  -->
<svg version="1.1" id="Layer_1" xmlns="http://www.w3.org/2000/svg" xmlns:xlink="http://www.w3.org/1999/xlink" x="0px" y="0px"
	 viewBox="0 0 290.6 290.6" style="enable-background:new 0 0 290.6 290.6;" xml:space="preserve">
<style type="text/css">
	.st0{fill:#16374B;}
</style>
<g>
	<g>
		<g>
			<path class="st0" d="M276.3,93.8h14.3V56.3h-19c-2.4-28.8-26.6-51.6-56-51.6c-25,0-39,15.3-44.8,23.6c-0.7,0-1.4-0.1-2.1-0.1
				c-13.2,0-24.5,7.8-29.7,19.1C132.7,20.2,108.6,0,79.7,0C47.7,0,21.4,24.8,19,56.3H0v37.5h14.2c1.1,22.9,10.6,43.6,25.3,59.3
				l12,114.4c0.2,13.1,15.2,23.2,28.1,23.2h131.3c12.9,0,27.9-10.1,28.1-23.2l12-114.4C265.8,137.4,275.2,116.7,276.3,93.8z
				 M252.9,136l4.4-42.2h9.6C266.1,109.3,261.1,123.8,252.9,136z M168.8,37.5c8.1,0,15,4.2,19.4,11.7l8.1-4.7
				c-3.8-6.5-9.1-11.3-15.4-14c5.8-7,16.9-16.5,34.8-16.5c24.3,0,44.3,18.5,46.6,42.2H145.8C148,45.6,157.4,37.5,168.8,37.5z
				 M281.3,65.6v18.8H112.5v-4.7c0-7.8,6.3-14.1,14.1-14.1C126.6,65.6,281.3,65.6,281.3,65.6z M79.7,9.4c26.8,0,48.9,20.6,51.3,46.9
				h-4.4c-12.9,0-23.4,10.5-23.4,23.4v42.2c0,7.8-6.3,14.1-14.1,14.1S75,129.6,75,121.9V56.3H28.4C30.7,30,52.8,9.4,79.7,9.4z
				 M23.6,93.8h9.7l4.4,42.1C29.6,123.6,24.4,109.3,23.6,93.8z M9.4,84.4V65.6h56.3v18.8H9.4z M229.7,266.7l0,0.5
				c0,7.2-10.6,14.1-18.8,14.1H79.7c-8.2,0-18.8-6.8-18.8-14.1L50,162.8c14.8,11.6,33.2,18.8,53.2,19.8v9.6h84.4v-9.6
				c20-1,38.4-8.2,53.2-19.9L229.7,266.7z M112.5,182.8v-9.4h65.6v9.4H112.5z M242.1,149c-14.2,14-33.4,23-54.6,24.2v-9.1h-84.4v9.1
				C81.9,172,62.7,163,48.5,148.9l-5.8-55.2h22.9v28.1c0,12.9,10.5,23.4,23.4,23.4s23.4-10.5,23.4-23.4V93.8h135.4L242.1,149z"/>
			<path class="st0" d="M267.2,220.3c-12.9,0-23.4,10.5-23.4,23.4s10.5,23.4,23.4,23.4s23.4-10.5,23.4-23.4S280.1,220.3,267.2,220.3
				z M267.2,257.8c-7.8,0-14.1-6.3-14.1-14.1s6.3-14.1,14.1-14.1s14.1,6.3,14.1,14.1C281.3,251.5,274.9,257.8,267.2,257.8z"/>
			<rect x="75" y="262.5" class="st0" width="9.4" height="9.4"/>
			<rect x="93.8" y="262.5" class="st0" width="9.4" height="9.4"/>
			<rect x="206.3" y="262.5" class="st0" width="9.4" height="9.4"/>
			<path class="st0" d="M173.4,220.3c0,7.8,6.3,14.1,14.1,14.1s14.1-6.3,14.1-14.1s-6.3-14.1-14.1-14.1S173.4,212.6,173.4,220.3z
				 M192.2,220.3c0,2.6-2.1,4.7-4.7,4.7s-4.7-2.1-4.7-4.7s2.1-4.7,4.7-4.7S192.2,217.7,192.2,220.3z"/>
		</g>
	</g>
</g>
</svg>
