<?xml version="1.0" encoding="utf-8"?>
<!-- Generator: Adobe Illustrator 22.1.0, SVG Export Plug-In . SVG Version: 6.00 Build 0)  -->
<svg version="1.1" id="Layer_1" xmlns="http://www.w3.org/2000/svg" xmlns:xlink="http://www.w3.org/1999/xlink" x="0px" y="0px"
	 viewBox="0 0 297 297" style="enable-background:new 0 0 297 297;" xml:space="preserve">
<style type="text/css">
	.st0{fill:#16374B;}
	.st1{fill:#FFFFFF;}
	.st2{fill:#EDECEB;}
	.st3{fill:#9ADAD9;}
	.st4{fill:#80B7B4;}
	.st5{fill:#5D7486;}
	.st6{fill:#345065;}
</style>
<g>
	<g>
		<circle class="st0" cx="148.5" cy="148.5" r="148.5"/>
	</g>
	<path class="st1" d="M148.5,90.2c-43.8,0-81.5,24-98,58.3c16.5,34.3,54.2,58.3,98,58.3s81.5-24,98-58.3
		C230,114.2,192.3,90.2,148.5,90.2z"/>
	<path class="st2" d="M148.5,90.2c-0.3,0-0.7,0-1,0v116.6c0.3,0,0.7,0,1,0c43.8,0,81.5-24,98-58.3C230,114.2,192.3,90.2,148.5,90.2z
		"/>
	<circle class="st3" cx="148.5" cy="148.5" r="49.5"/>
	<path class="st4" d="M148.5,99c-0.3,0-0.7,0-1,0V198c0.3,0,0.7,0,1,0c27.3,0,49.5-22.2,49.5-49.5C198,121.2,175.8,99,148.5,99z"/>
	<circle class="st5" cx="148.5" cy="148.5" r="23"/>
	<path class="st6" d="M148.5,125.5c-0.3,0-0.7,0-1,0v45.9c0.3,0,0.7,0,1,0c12.7,0,23-10.3,23-23
		C171.5,135.8,161.2,125.5,148.5,125.5z"/>
	<circle class="st1" cx="140.3" cy="140.3" r="8.3"/>
</g>
</svg>
