<?xml version="1.0" encoding="utf-8"?>
<!-- Generator: Adobe Illustrator 22.1.0, SVG Export Plug-In . SVG Version: 6.00 Build 0)  -->
<svg version="1.1" id="Layer_1" xmlns="http://www.w3.org/2000/svg" xmlns:xlink="http://www.w3.org/1999/xlink" x="0px" y="0px"
	 viewBox="0 0 179 55" style="enable-background:new 0 0 179 55;" xml:space="preserve">
<style type="text/css">
	.st0{fill:none;}
	.st1{display:none;}
	.st2{display:inline;fill:none;}
	.st3{fill:#16374B;}
	.st4{enable-background:new    ;}
</style>
<g>
	<title>background</title>
	<rect id="canvas_background" x="-1" y="-1" class="st0" width="181" height="57"/>
	<g id="canvasGrid" class="st1">
		<rect x="1" y="1" class="st2" width="177" height="53"/>
	</g>
</g>
<g>
	<title>Layer 1</title>
	<g id="svg_23">
		<g id="svg_5" transform="matrix(0.10551818539428215,0,0,0.10551818539428215,0,0) ">
			<g id="svg_6">
				<path id="svg_7" class="st3" d="M393,99.7c0-10.6-4.1-20.5-11.6-28c-7.5-7.5-17.4-11.6-28-11.6c-10.6,0-20.5,4.1-28,11.6
					l-49.9,49.9L249,95.2c-6.1-6.1-14.3-9.5-22.9-9.5s-16.8,3.4-22.9,9.5l-51.3,51.3c-2,2-3.1,4.6-3.1,7.4c0,2.7,1,5.3,2.9,7.2
					L66,246.8c-4.1,4.1-4.1,10.7,0,14.7l48.8,49v17.9c0,13.7,2.4,23.5,7.5,31.1c5.4,8,13.8,13,23.5,14.2c-0.9,7.3-2.8,15.2-4.8,23
					c-5,20.1-10.2,40.9,3.1,57.9c8.3,10.6,21.3,15.9,38.9,15.9c16.5,0,25.8-7.2,30.6-13.2c11.7-14.5,7.7-32.8,4.5-47.5
					c-0.2-0.8-0.3-1.5-0.5-2.3c2.3,0.5,4.6,0.7,7,0.7c7,0,13.8-2.2,20.2-6.5c9.1-6.2,14.4-15.4,15.2-26.7c0.5-6.5-0.6-12.7-1.7-18.7
					c-1.1-6.4-2.2-12.4-1.8-19.3l35.6-35.6c1.9,1.8,4.4,2.8,7.1,2.8l0,0c2.8,0,5.4-1.1,7.4-3.1l51.3-51.3c6.1-6.1,9.5-14.3,9.5-22.9
					c0-8.7-3.4-16.8-9.5-22.9l-26.5-26.5l49.9-49.9C388.8,120.2,393,110.3,393,99.7z M231.3,321c-1.5,1.5-2.5,3.5-2.9,5.6
					c-2.5,14.2-0.4,26.2,1.1,34.9c2,11.3,1.8,14.2-1.1,16.1c-1,0.7-2.5,1.5-3.8,1.5c-3.6,0-6.6-6.1-7.4-8c-2.2-5.1-8.1-7.6-13.3-5.5
					c-23.4,9.1-18.2,33-14.4,50.5c2,9.1,4.2,19.3,1.3,23c-1.5,1.9-5.1,2.3-7.9,2.3c-8.1,0-13.4-1.6-15.8-4.7
					c-4.5-5.8-1.2-18.9,2.3-32.9c3.4-13.6,7.2-29,5.7-43.6c-1.1-10.8-6.1-16.3-14.7-16.3l0,0c-1.9,0-3.8,0.2-5.6,0.5
					c-1.6,0.2-3.1,0.4-4.4,0.4c-2.7,0-3.3-0.9-3.8-1.6c-1.1-1.7-2.5-5.6-2.5-14.7v-25.7c0-2.8-1.1-5.4-3-7.4L100,254.2l66.9-66.9
					l27.4,27.4L161.1,253c-0.7,0.8-0.7,2.1,0.1,2.8c0.4,0.4,0.9,0.6,1.5,0.6c0.5,0,1-0.2,1.4-0.5l38.3-33.2l34.9,34.9l-22.4,25.9
					c-0.7,0.8-0.7,2.1,0.1,2.8c0.4,0.4,0.9,0.6,1.5,0.6c0.5,0,1-0.2,1.4-0.5l25.9-22.4l22.4,22.4C265.9,286.4,231.3,321,231.3,321z"
					/>
			</g>
		</g>
		<g id="svg_8" transform="matrix(0.10551818539428215,0,0,0.10551818539428215,0,0) ">
		</g>
		<g id="svg_9" transform="matrix(0.10551818539428215,0,0,0.10551818539428215,0,0) ">
		</g>
		<g id="svg_10" transform="matrix(0.10551818539428215,0,0,0.10551818539428215,0,0) ">
		</g>
		<g id="svg_11" transform="matrix(0.10551818539428215,0,0,0.10551818539428215,0,0) ">
		</g>
		<g id="svg_12" transform="matrix(0.10551818539428215,0,0,0.10551818539428215,0,0) ">
		</g>
		<g id="svg_13" transform="matrix(0.10551818539428215,0,0,0.10551818539428215,0,0) ">
		</g>
		<g id="svg_14" transform="matrix(0.10551818539428215,0,0,0.10551818539428215,0,0) ">
		</g>
		<g id="svg_15" transform="matrix(0.10551818539428215,0,0,0.10551818539428215,0,0) ">
		</g>
		<g id="svg_16" transform="matrix(0.10551818539428215,0,0,0.10551818539428215,0,0) ">
		</g>
		<g id="svg_17" transform="matrix(0.10551818539428215,0,0,0.10551818539428215,0,0) ">
		</g>
		<g id="svg_18" transform="matrix(0.10551818539428215,0,0,0.10551818539428215,0,0) ">
		</g>
		<g id="svg_19" transform="matrix(0.10551818539428215,0,0,0.10551818539428215,0,0) ">
		</g>
		<g id="svg_20" transform="matrix(0.10551818539428215,0,0,0.10551818539428215,0,0) ">
		</g>
		<g id="svg_21" transform="matrix(0.10551818539428215,0,0,0.10551818539428215,0,0) ">
		</g>
		<g id="svg_22" transform="matrix(0.10551818539428215,0,0,0.10551818539428215,0,0) ">
		</g>
	</g>
	<g class="st4">
		<path class="st3" d="M59.7,32.5V11h7c2.6,0,4.4,0.1,5.2,0.3c1.2,0.3,2.3,1,3.1,2.1c0.8,1.1,1.2,2.5,1.2,4.2c0,1.3-0.2,2.4-0.7,3.3
			s-1.1,1.6-1.8,2.1c-0.7,0.5-1.5,0.9-2.2,1c-1,0.2-2.5,0.3-4.5,0.3H64v8.1H59.7z M64,14.7v6.1h2.4c1.7,0,2.9-0.1,3.4-0.3
			s1-0.6,1.4-1.1s0.5-1,0.5-1.7c0-0.8-0.2-1.4-0.7-1.9s-1-0.8-1.7-1c-0.5-0.1-1.6-0.1-3.1-0.1H64z"/>
		<path class="st3" d="M79.6,32.5V11h4.3v21.5H79.6z"/>
		<path class="st3" d="M88.1,32.5V11h4.2l8.8,14.3V11h4v21.5h-4.4l-8.7-14v14H88.1z"/>
		<path class="st3" d="M114.5,32.5V14.7h-6.4V11h17.1v3.6h-6.4v17.8H114.5z"/>
		<path class="st3" d="M126.6,21.9c0-2.2,0.3-4,1-5.5c0.5-1.1,1.2-2.1,2-2.9c0.8-0.9,1.8-1.5,2.8-1.9c1.3-0.6,2.9-0.8,4.6-0.8
			c3.2,0,5.7,1,7.6,2.9c1.9,2,2.8,4.7,2.8,8.2c0,3.5-0.9,6.2-2.8,8.1s-4.4,2.9-7.6,2.9c-3.2,0-5.7-1-7.6-2.9
			C127.5,28,126.6,25.3,126.6,21.9z M131.1,21.7c0,2.4,0.6,4.3,1.7,5.5c1.1,1.3,2.5,1.9,4.3,1.9s3.1-0.6,4.3-1.9
			c1.1-1.2,1.7-3.1,1.7-5.6c0-2.5-0.5-4.3-1.6-5.5c-1.1-1.2-2.5-1.8-4.3-1.8s-3.2,0.6-4.3,1.8C131.6,17.4,131.1,19.3,131.1,21.7z"/>
		<path class="st3" d="M150.8,32.5V11h9.1c2.3,0,4,0.2,5,0.6c1,0.4,1.9,1.1,2.5,2.1s0.9,2.1,0.9,3.4c0,1.6-0.5,2.9-1.4,4
			c-0.9,1.1-2.4,1.7-4.2,2c0.9,0.5,1.7,1.1,2.3,1.8c0.6,0.7,1.4,1.8,2.5,3.5l2.6,4.2h-5.2l-3.1-4.7c-1.1-1.7-1.9-2.7-2.3-3.2
			c-0.4-0.4-0.8-0.7-1.3-0.9c-0.5-0.2-1.2-0.2-2.2-0.2h-0.9v9H150.8z M155.2,20.1h3.2c2.1,0,3.4-0.1,3.9-0.3s0.9-0.5,1.2-0.9
			s0.4-1,0.4-1.6c0-0.7-0.2-1.3-0.6-1.8c-0.4-0.4-0.9-0.7-1.6-0.8c-0.4,0-1.4-0.1-3.2-0.1h-3.4V20.1z"/>
	</g>
	<g class="st4">
		<path d="M48.1,40.9c-0.1-1.2-1.1-1.6-2-1.6c-0.7,0-1.8,0.2-1.8,1.4c0,0.7,0.5,0.9,0.9,1l2.3,0.5c1,0.2,1.8,0.9,1.8,2.1
			c0,1.9-1.7,2.4-3.1,2.4c-1.5,0-2-0.4-2.4-0.8c-0.7-0.6-0.8-1.3-0.8-2h1c0,1.4,1.2,1.8,2.2,1.8c0.8,0,2.1-0.2,2.1-1.3
			c0-0.8-0.4-1.1-1.7-1.4L45,42.7c-0.5-0.1-1.7-0.5-1.7-1.9c0-1.2,0.8-2.4,2.7-2.4c2.8,0,3,1.7,3.1,2.5H48.1z"/>
		<path d="M51.9,44.2l-0.8,2.3H50l3-7.9h1.2l2.9,7.9h-1.2l-0.8-2.3H51.9z M54.7,43.3l-1.2-3.5h0l-1.3,3.5H54.7z"/>
		<path d="M63.2,38.6h1v7.9h-1.2l-4-6.4h0v6.4h-1v-7.9h1.3l3.9,6.4h0V38.6z"/>
		<path d="M69.4,44v0.5c0,0.9,0.5,1.3,1.2,1.3c1,0,1.3-0.6,1.3-1.4v-5.8h1.1v5.8c0,1.8-1.2,2.3-2.3,2.3c-1.8,0-2.2-1.2-2.2-2V44
			H69.4z"/>
		<path d="M78,46.7c-2.9,0-3.9-2.5-3.9-4.2c0-1.7,0.9-4.2,3.9-4.2c2.9,0,3.9,2.5,3.9,4.2C81.8,44.3,80.9,46.7,78,46.7z M78,39.3
			c-1.7,0-2.8,1.4-2.8,3.2s1,3.2,2.8,3.2s2.8-1.4,2.8-3.2S79.7,39.3,78,39.3z"/>
		<path d="M87.8,40.9c-0.1-1.2-1.1-1.6-2-1.6c-0.7,0-1.8,0.2-1.8,1.4c0,0.7,0.5,0.9,0.9,1l2.3,0.5c1,0.2,1.8,0.9,1.8,2.1
			c0,1.9-1.7,2.4-3.1,2.4c-1.5,0-2-0.4-2.4-0.8c-0.7-0.6-0.8-1.3-0.8-2h1c0,1.4,1.2,1.8,2.2,1.8c0.8,0,2.1-0.2,2.1-1.3
			c0-0.8-0.4-1.1-1.7-1.4l-1.6-0.4c-0.5-0.1-1.7-0.5-1.7-1.9c0-1.2,0.8-2.4,2.7-2.4c2.8,0,3,1.7,3.1,2.5H87.8z"/>
		<path d="M96.3,46.5h-5.8v-7.9h5.8v0.9h-4.7V42h4.3v0.9h-4.3v2.6h4.8V46.5z"/>
		<path d="M97.9,45.3H99v1.1c0,1.5-0.9,1.7-1.1,1.7v-0.5c0.5,0,0.6-0.6,0.6-1.1h-0.6V45.3z"/>
		<path d="M109.4,41c-0.3-1.4-1.5-1.6-2.2-1.6c-1.4,0-2.6,1.1-2.6,3.1c0,1.9,0.7,3.3,2.6,3.3c0.7,0,1.9-0.3,2.3-2.2h1
			c-0.4,3-2.9,3.1-3.5,3.1c-1.8,0-3.6-1.2-3.6-4.2c0-2.4,1.4-4.1,3.7-4.1c2,0,3.1,1.3,3.2,2.6H109.4z"/>
		<path d="M115.2,46.7c-2.9,0-3.9-2.5-3.9-4.2c0-1.7,0.9-4.2,3.9-4.2s3.9,2.5,3.9,4.2C119.1,44.3,118.2,46.7,115.2,46.7z
			 M115.2,39.3c-1.7,0-2.8,1.4-2.8,3.2s1,3.2,2.8,3.2s2.8-1.4,2.8-3.2S117,39.3,115.2,39.3z"/>
		<path d="M125.1,40.9c-0.1-1.2-1.1-1.6-2-1.6c-0.7,0-1.8,0.2-1.8,1.4c0,0.7,0.5,0.9,0.9,1l2.3,0.5c1,0.2,1.8,0.9,1.8,2.1
			c0,1.9-1.7,2.4-3.1,2.4c-1.5,0-2-0.4-2.4-0.8c-0.7-0.6-0.8-1.3-0.8-2h1c0,1.4,1.2,1.8,2.2,1.8c0.8,0,2.1-0.2,2.1-1.3
			c0-0.8-0.4-1.1-1.7-1.4l-1.6-0.4c-0.5-0.1-1.7-0.5-1.7-1.9c0-1.2,0.8-2.4,2.7-2.4c2.8,0,3,1.7,3.1,2.5H125.1z"/>
		<path d="M127,38.6h6.4v0.9h-2.7v7h-1.1v-7H127V38.6z"/>
		<path d="M134.3,44.2l-0.8,2.3h-1.1l3-7.9h1.2l2.9,7.9h-1.2l-0.8-2.3H134.3z M137.1,43.3l-1.2-3.5h0l-1.3,3.5H137.1z"/>
		<path d="M144.7,46.5h-1.1v-7.9h3.7c1.3,0,2.6,0.5,2.6,2.1c0,1.2-0.6,1.6-1.1,1.9c0.5,0.2,0.9,0.4,0.9,1.5l0.1,1.4
			c0,0.4,0.1,0.6,0.4,0.8v0.2h-1.3c-0.2-0.5-0.2-1.7-0.2-2c0-0.6-0.1-1.4-1.4-1.4h-2.6V46.5z M144.7,42.2h2.5c0.8,0,1.6-0.2,1.6-1.4
			c0-1.2-0.9-1.3-1.4-1.3h-2.7V42.2z"/>
		<path d="M152.7,46.5h-1.1v-7.9h1.1V46.5z"/>
		<path d="M160,41c-0.3-1.4-1.5-1.6-2.2-1.6c-1.4,0-2.6,1.1-2.6,3.1c0,1.9,0.7,3.3,2.6,3.3c0.7,0,1.9-0.3,2.3-2.2h1
			c-0.4,3-2.9,3.1-3.5,3.1c-1.8,0-3.6-1.2-3.6-4.2c0-2.4,1.4-4.1,3.7-4.1c2,0,3.1,1.3,3.2,2.6H160z"/>
		<path d="M163.7,44.2l-0.8,2.3h-1.1l3-7.9h1.2l2.9,7.9h-1.2l-0.8-2.3H163.7z M166.5,43.3l-1.2-3.5h0l-1.3,3.5H166.5z"/>
	</g>
</g>
</svg>
