<svg id="c73b0d1d-9d0f-4679-af6d-8560c41ddb85" data-name="Layer 1" xmlns="http://www.w3.org/2000/svg" viewBox="0 0 497.22 618.98"><title>SJPintor_Logo</title><path d="M488.07,33.14c17.32-16.44,57-11.17,76.28,7,13.5,12.71,19.36,33.24,17.53,55.23-1.09,13.15-8.65,22-26.3,40.77C526.43,165.52,515,176.7,494,197.3c-2.49,2.44-2.41,6.79,2,10.3,10.09,9.42,23.56,20,42.56,46.11,12.44,17.13,4.13,44.63-13.19,61.94-34.63,34.42-56.89,55.32-74.21,73.08-7.52,7.71-18.54-2.82-22.42,1.17-7.89,8.11-25.45,24.82-50.43,50,0,0-3.07,13.37,3.72,35.94,3.31,11,2.74,39.55-15.78,57-16.56,15.6-40.12,13.83-46.46,13.15a86.39,86.39,0,0,1,3.5,21.92c.19,6.7,9,39.45-25.42,64-25.48,18.17-64.88,10.86-85-10.52-19.71-20.89-20.43-54.55-14-76.28,6.07-20.6,15.12-46.24,10-50.74-2.26-2-4.53,1-13.47-3.61-25.34-13.19-31-39.75-31.12-44.5-.44-19.94-1.15-33.11-1.1-46.68-22.5-23.09-46.1-47.05-68.6-70.14-5.61-8.72-13.67-14.92-6.79-22.35C95.75,298.34,99.05,294,105,288.26,135,258.89,217.39,175.6,217.39,175.6c-1.75-6.36-7.68-12.6,2.63-23.45,16.66-17.54,46.9-46,66.19-66,29.4-30.4,48.47-25.21,66.85-18.85,11.4,3.94,30.59,27.25,47.25,44.35,4.6,4.72,7.27,1.69,10.61-1.61C451.77,69.82,460,60.31,488.07,33.14Z" transform="translate(-84.99 -23.26)" style="fill:#010101"/><path d="M305.63,103a108.27,108.27,0,0,1,13.5,11.78c5.77,5.77,8.77,11,9.32,16a17.07,17.07,0,0,1-5.15,14c-4.05,4-8.84,6.14-13.62,6-6.2-.18-12.28-3.56-17.8-9.08a32.9,32.9,0,0,1-3-3.38l-14.79,14.79-9.27-9.26Zm-9.52,28a20.69,20.69,0,0,0,2.89,3.38c5,5,10.55,5.52,14.79,1.29,3.8-3.81,3.43-8.72-1.23-13.38a22.87,22.87,0,0,0-4.23-3.5Z" transform="translate(-84.99 -23.26)" style="fill:#fff"/><path d="M351.22,147.5l-41.36,41.36-9.39-9.38,41.36-41.37Z" transform="translate(-84.99 -23.26)" style="fill:#fff"/><path d="M318,197l41.37-41.37,10.92,10.93-6.57,23.75a169.37,169.37,0,0,1-7.42,20.92l.18.19a216.77,216.77,0,0,1,16.45-18L385,181.25l8.59,8.6-41.36,41.36-9.82-9.82,7.12-24.79a216.23,216.23,0,0,1,7.42-21.79l-.24-.12c-5.22,5.7-10.93,11.66-17.68,18.41l-12.46,12.46Z" transform="translate(-84.99 -23.26)" style="fill:#fff"/><path d="M401.79,213.78l-11.1-11.11,7.85-7.85,31.79,31.79-7.85,7.85-11.3-11.29-33.5,33.51-9.39-9.39Z" transform="translate(-84.99 -23.26)" style="fill:#fff"/><path d="M451.14,287.92c-13.57,13.56-30,13.56-42.1,1.47-12.28-12.27-10.19-28.72,1.59-40.5,12.4-12.4,29.58-13.75,41.8-1.54C465.13,260.06,462.55,276.5,451.14,287.92ZM420.7,258.58c-8.1,8.1-10,17.62-3.75,23.88s16,3.92,24-4.12c7.43-7.42,10.25-17.36,3.8-23.81S428.74,250.54,420.7,258.58Z" transform="translate(-84.99 -23.26)" style="fill:#fff"/><path d="M477,274.36A116.37,116.37,0,0,1,490.29,286c6.14,6.13,9.52,11.35,10.13,16.63.49,4.42-1,8.65-4.85,12.46a15.54,15.54,0,0,1-17.49,2.88l-.18.18c1.71,4.05.55,8.41-2.21,13.26-3.38,5.95-7.49,12.64-8.29,15l-9.57-9.58c.49-1.84,2.88-6.2,6.75-12.52,4.05-6.26,3.68-9.45-.06-13.31l-2.83-2.83-16.26,16.27-9.26-9.27Zm-8.53,27.06,3.68,3.68c4.66,4.67,9.75,5.1,13.38,1.48,3.8-3.81,3.13-8.29-1.11-12.65a32.48,32.48,0,0,0-4.54-3.92Z" transform="translate(-84.99 -23.26)" style="fill:#fff"/><path d="M275.89,497.79C264,522.68,268.2,549.66,272,566.31c.42-3,.86-6,1.34-9.07A423.69,423.69,0,0,1,291.5,484.5C286.51,483.93,281,487.16,275.89,497.79Z" transform="translate(-84.99 -23.26)" style="fill:none"/><path d="M250.23,304.05a3.25,3.25,0,0,1-4.61-4.52l28.51-36.22a3.26,3.26,0,0,0-.21-4.27l-17.17-17.76c-31.15,30.68-58.4,70.24-81.46,118.27,4.58,4.29,8.56,8.07,11.17,10.68,7.22,7.22,12.48,3.69,15.19,9.08,13-34.52,30.92-57.5,50.16-76.56Z" transform="translate(-84.99 -23.26)" style="fill:#fff"/><path d="M275.89,497.79c5.06-10.63,10.62-13.86,15.61-13.29,22-63.25,54.59-104.16,79.1-132.28l-16.52-14.75a3.24,3.24,0,0,0-4-.23L325.8,354.3a3.22,3.22,0,0,1-4.76-4c-30,26.82-49.77,51.85-56.46,124.54-3.35,36.4-1.9,61.49-.5,85.76.78,13.49,1.52,26.49,1.45,40.19a23.93,23.93,0,0,0,3.2-4.17q1.2-15.11,3.3-30.28C268.2,549.66,264,522.68,275.89,497.79Z" transform="translate(-84.99 -23.26)" style="fill:#fff"/><path d="M256.75,241.28,240,224a3.25,3.25,0,0,0-4.62-.06l-97.79,96.54a3.25,3.25,0,0,0,.1,4.72c6.59,5.94,24.58,22.22,37.57,34.36C198.35,311.52,225.6,272,256.75,241.28Z" transform="translate(-84.99 -23.26)" style="fill:#2e368f"/><path d="M306.79,501.74c2.87,21.37,31.48,22,28.27,0-.89-6.17-5.27-24.19-6.41-41.69a73.43,73.43,0,0,1,20.81-56L384,368.71a3.25,3.25,0,0,0-.16-4.69l-13.22-11.8c-14.28,16.38-38,25.24-54,52.2-11.51,19.31-15.86,53.68-25.06,80.08C299.48,485.4,306,496,306.79,501.74Z" transform="translate(-84.99 -23.26)" style="fill:#2e368f"/><path d="M273.26,571.43c-.4-1.56-.81-3.3-1.23-5.12q-2.11,15.15-3.3,30.28C273.15,589.36,275.13,578.92,273.26,571.43Z" transform="translate(-84.99 -23.26)" style="fill:#fff"/><path d="M264.08,560.57c-1.4-24.27-2.85-49.36.5-85.76,6.69-72.69,26.5-97.72,56.46-124.54a3,3,0,0,1,.3-.59l18.56-24.49a3.25,3.25,0,0,0-.34-4.3l-48.45-46.63a3.24,3.24,0,0,0-4.31-.17l-35,28.66c-19.24,19.06-37.12,42-50.16,76.56,1.73,3.44,2.42,10.52,1.91,26.43-1.32,40.76,5.26,50,31.56,46s14.46,52.61,10.52,81.54-15.78,51.29,1.31,67.07c7.24,6.67,13.75,5.33,18.58.39C265.6,587.06,264.86,574.06,264.08,560.57Z" transform="translate(-84.99 -23.26)" style="fill:#c1282d"/></svg>