<?xml version="1.0" encoding="utf-8"?>
<!-- Generator: Adobe Illustrator 22.1.0, SVG Export Plug-In . SVG Version: 6.00 Build 0)  -->
<svg version="1.1" id="Layer_1" xmlns="http://www.w3.org/2000/svg" xmlns:xlink="http://www.w3.org/1999/xlink" x="0px" y="0px"
	 viewBox="0 0 179 55" style="enable-background:new 0 0 179 55;" xml:space="preserve">
<style type="text/css">
	.st0{fill:none;}
	.st1{display:none;}
	.st2{display:inline;fill:none;}
	.st3{fill:#16374B;}
	.st4{fill:#1A333F;}
	.st5{font-family:'Arial-BoldMT';}
	.st6{font-size:30px;}
	.st7{font-family:'Helvetica';}
	.st8{font-size:11px;}
</style>
<g>
	<title>background</title>
	<rect id="canvas_background" x="-1" y="-1" class="st0" width="181" height="57"/>
	<g id="canvasGrid" class="st1">
		<rect x="1" y="1" class="st2" width="177" height="53"/>
	</g>
</g>
<g>
	<title>Layer 1</title>
	<g id="svg_23">
		<g id="svg_5" transform="matrix(0.10551818539428215,0,0,0.10551818539428215,0,0) ">
			<g id="svg_6">
				<path id="svg_7" class="st3" d="M393,99.7c0-10.6-4.1-20.5-11.6-28c-7.5-7.5-17.4-11.6-28-11.6c-10.6,0-20.5,4.1-28,11.6
					l-49.9,49.9L249,95.2c-6.1-6.1-14.3-9.5-22.9-9.5s-16.8,3.4-22.9,9.5l-51.3,51.3c-2,2-3.1,4.6-3.1,7.4c0,2.7,1,5.3,2.9,7.2
					L66,246.8c-4.1,4.1-4.1,10.7,0,14.7l48.8,49l0,17.9c0,13.7,2.4,23.5,7.5,31.1c5.4,8,13.8,13,23.5,14.2c-0.9,7.3-2.8,15.2-4.8,23
					c-5,20.1-10.2,40.9,3.1,57.9c8.3,10.6,21.3,15.9,38.9,15.9c16.5,0,25.8-7.2,30.6-13.2c11.7-14.5,7.7-32.8,4.5-47.5
					c-0.2-0.8-0.3-1.5-0.5-2.3c2.3,0.5,4.6,0.7,7,0.7c7,0,13.8-2.2,20.2-6.5c9.1-6.2,14.4-15.4,15.2-26.7c0.5-6.5-0.6-12.7-1.7-18.7
					c-1.1-6.4-2.2-12.4-1.8-19.3l35.6-35.6c1.9,1.8,4.4,2.8,7.1,2.8l0,0c2.8,0,5.4-1.1,7.4-3.1l51.3-51.3c6.1-6.1,9.5-14.3,9.5-22.9
					c0-8.7-3.4-16.8-9.5-22.9l-26.5-26.5l49.9-49.9C388.8,120.2,393,110.3,393,99.7z M231.3,321c-1.5,1.5-2.5,3.5-2.9,5.6
					c-2.5,14.2-0.4,26.2,1.1,34.9c2,11.3,1.8,14.2-1.1,16.1c-1,0.7-2.5,1.5-3.8,1.5c-3.6,0-6.6-6.1-7.4-8c-2.2-5.1-8.1-7.6-13.3-5.5
					c-23.4,9.1-18.2,33-14.4,50.5c2,9.1,4.2,19.3,1.3,23c-1.5,1.9-5.1,2.3-7.9,2.3c-8.1,0-13.4-1.6-15.8-4.7
					c-4.5-5.8-1.2-18.9,2.3-32.9c3.4-13.6,7.2-29,5.7-43.6c-1.1-10.8-6.1-16.3-14.7-16.3h0c-1.9,0-3.8,0.2-5.6,0.5
					c-1.6,0.2-3.1,0.4-4.4,0.4c-2.7,0-3.3-0.9-3.8-1.6c-1.1-1.7-2.5-5.6-2.5-14.7l0-25.7c0-2.8-1.1-5.4-3-7.4L100,254.2l66.9-66.9
					l27.4,27.4L161.1,253c-0.7,0.8-0.7,2.1,0.1,2.8c0.4,0.4,0.9,0.6,1.5,0.6c0.5,0,1-0.2,1.4-0.5l38.3-33.2l34.9,34.9l-22.4,25.9
					c-0.7,0.8-0.7,2.1,0.1,2.8c0.4,0.4,0.9,0.6,1.5,0.6c0.5,0,1-0.2,1.4-0.5l25.9-22.4l22.4,22.4C265.9,286.4,231.3,321,231.3,321z"
					/>
			</g>
		</g>
		<g id="svg_8" transform="matrix(0.10551818539428215,0,0,0.10551818539428215,0,0) ">
		</g>
		<g id="svg_9" transform="matrix(0.10551818539428215,0,0,0.10551818539428215,0,0) ">
		</g>
		<g id="svg_10" transform="matrix(0.10551818539428215,0,0,0.10551818539428215,0,0) ">
		</g>
		<g id="svg_11" transform="matrix(0.10551818539428215,0,0,0.10551818539428215,0,0) ">
		</g>
		<g id="svg_12" transform="matrix(0.10551818539428215,0,0,0.10551818539428215,0,0) ">
		</g>
		<g id="svg_13" transform="matrix(0.10551818539428215,0,0,0.10551818539428215,0,0) ">
		</g>
		<g id="svg_14" transform="matrix(0.10551818539428215,0,0,0.10551818539428215,0,0) ">
		</g>
		<g id="svg_15" transform="matrix(0.10551818539428215,0,0,0.10551818539428215,0,0) ">
		</g>
		<g id="svg_16" transform="matrix(0.10551818539428215,0,0,0.10551818539428215,0,0) ">
		</g>
		<g id="svg_17" transform="matrix(0.10551818539428215,0,0,0.10551818539428215,0,0) ">
		</g>
		<g id="svg_18" transform="matrix(0.10551818539428215,0,0,0.10551818539428215,0,0) ">
		</g>
		<g id="svg_19" transform="matrix(0.10551818539428215,0,0,0.10551818539428215,0,0) ">
		</g>
		<g id="svg_20" transform="matrix(0.10551818539428215,0,0,0.10551818539428215,0,0) ">
		</g>
		<g id="svg_21" transform="matrix(0.10551818539428215,0,0,0.10551818539428215,0,0) ">
		</g>
		<g id="svg_22" transform="matrix(0.10551818539428215,0,0,0.10551818539428215,0,0) ">
		</g>
	</g>
	<text id="svg_24" transform="matrix(1 0 0 1 57.5 32.5)" class="st4 st5 st6">PINTOR</text>
	<text id="svg_25" transform="matrix(1 0 0 1 42.5 46.5)" class="st7 st8">SAN JOSE, COSTA RICA</text>
</g>
</svg>
