<?xml version="1.0" encoding="utf-8"?>
<!-- Generator: Adobe Illustrator 22.1.0, SVG Export Plug-In . SVG Version: 6.00 Build 0)  -->
<svg version="1.1" id="Layer_1" xmlns="http://www.w3.org/2000/svg" xmlns:xlink="http://www.w3.org/1999/xlink" x="0px" y="0px"
	 viewBox="0 0 43 62" style="enable-background:new 0 0 43 62;" xml:space="preserve">
<style type="text/css">
	.st0{fill:none;stroke:#5B92E2;stroke-width:1.7;stroke-linecap:round;stroke-linejoin:round;}
</style>
<title>nyc-icon@3x</title>
<g>
	<path class="st0" d="M6.2,53.5v-3.9h3v-3.7h3V21.1H15v-5.3h1.7v-3.6h4.9 M37.1,53.5v-3.9h-3v-3.7h-3V21.1h-2.9v-5.3h-1.7v-3.6h-4.9
		 M18.6,12.3V8.5h6.3v3.8 M21,1.5v7"/>
	<path class="st0" d="M24.9,21.4V46h-6.3V21.4"/>
	<path class="st0" d="M12.1,23C5.8,26.4,1.5,33,1.5,40.7c0,4.9,1.7,9.4,4.7,12.9c3.8,4.6,9.5,7.3,15.5,7.3s11.6-2.7,15.4-7.3
		c3-3.6,4.7-8.2,4.7-12.9c0-7.7-4.3-14.3-10.6-17.7"/>
</g>
</svg>
