<?xml version="1.0" encoding="utf-8"?>
<!-- Generator: Adobe Illustrator 22.1.0, SVG Export Plug-In . SVG Version: 6.00 Build 0)  -->
<svg version="1.1" id="Layer_1" xmlns="http://www.w3.org/2000/svg" xmlns:xlink="http://www.w3.org/1999/xlink" x="0px" y="0px"
	 viewBox="0 0 325.5 325.5" style="enable-background:new 0 0 325.5 325.5;" xml:space="preserve">
<style type="text/css">
	.st0{fill:#16374B;}
</style>
<g>
	<g>
		<g>
			<path class="st0" d="M258.6,158.1c12.6,0,24.2-8.2,28-20.8c0.7,0.1,1.3,0.3,2,0.3c2.7,0,5.4-0.8,7.9-2.3c3.6-2.2,6.2-5.7,7.3-9.8
				c1.2-4.1,0.8-8.5-1.1-12.2c-1.6-3.2-4.2-5.6-7.4-7c4-15.3-5-31.1-20.3-35.4L45.6,6.1c-7.5-2.1-15.4-1.2-22.2,2.6
				c-6.8,3.8-11.8,10.1-13.9,17.5L1.1,56.1C-1,63.6-0.1,71.5,3.8,78.3c3.8,6.8,10.1,11.8,17.5,13.9L250.6,157
				C253.3,157.7,255.9,158.1,258.6,158.1z M296.2,116.5c1.1,2.1,1.3,4.6,0.6,7c-0.7,2.4-2.1,4.4-4.2,5.6c-1.3,0.8-2.7,1.2-4.1,1.2
				l4.8-16.9C294.5,114.1,295.5,115.2,296.2,116.5z M10.1,74.8c-2.9-5.1-3.6-11.1-2-16.7l8.1-28.5c6.4,1.8,10.7,2.9,14.8,4.1
				c4.8,1.3,9.5,2.6,17.6,4.8c5.3,1.5,11.4,3.8,12.4,8.5c0.5,2.5-0.6,5.2-1.8,8.1c-0.6,1.3-1.1,2.7-1.5,4c-1.2,3.8-0.6,8.3,1.5,11.2
				c1.4,2,3.5,3.1,5.8,3.2c0.1,0,0.2,0,0.3,0c4.4,0,7.1-3.7,9.4-6.7c2.1-2.9,3.4-4.6,5.1-4.3c0.5,0.1,0.9,0.4,1.3,0.9
				c0.9,1.5,1.1,4.4,0.3,7c-1,3.9-2.9,11.2,2.2,15c1.8,1.3,4,1.8,6.4,1.3c3.1-0.7,6.3-3.1,8-6.1c1.2-2.1,1.9-4.3,2.5-6.4
				c0.6-2,1.2-3.9,2.1-5.5c1-1.7,2.9-3.2,4.6-3.5c0.9-0.2,1.7,0,2.3,0.4c1.9,1.4,1.3,4.7,0.1,9.4c-1.3,5.1-2.8,11.4,2.6,14.5
				c1.2,0.7,2.4,1,3.7,1c1,0,2-0.2,3-0.6c3.4-1.4,6.4-5.1,7.6-9.2c0.3-1.2,0.6-2.5,0.8-3.8c0.7-3.4,1.3-6.7,3.5-8.5
				c3-2.4,6.9-1.3,12.9,0.9c4.5,1.7,9.2,3.3,13.9,2.7c1.4-0.2,2.4-1.5,2.2-2.9c-0.2-1.4-1.5-2.4-2.9-2.2c-3.5,0.5-7.5-1-11.4-2.4
				c-5.8-2.1-12.4-4.6-17.9-0.1c-3.6,2.9-4.5,7.4-5.3,11.4c-0.2,1.2-0.5,2.3-0.8,3.4c-0.7,2.5-2.6,5-4.5,5.8
				c-1.1,0.4-1.8,0.2-2.2-0.1c-2-1.2-1.4-4.1-0.2-8.9c1.2-5,2.8-11.1-2-14.7c-1.8-1.3-4-1.8-6.4-1.3c-3.2,0.6-6.3,3-8,6
				c-1.2,2.1-1.9,4.3-2.6,6.5c-0.6,2-1.2,3.8-2.1,5.4c-1,1.7-2.9,3.2-4.6,3.6c-0.9,0.2-1.7,0.1-2.3-0.4c-2.1-1.6-1.2-5.8-0.2-9.6
				c0.9-3.2,1.1-7.9-0.9-11.1c-1.1-1.7-2.7-2.8-4.6-3.2c-4.9-1-7.9,3-10.3,6.3c-2.1,2.8-3.5,4.6-5.3,4.6c0,0-0.1,0-0.1,0
				c-0.4,0-1.1-0.1-1.7-1c-1.1-1.6-1.4-4.5-0.7-6.7c0.4-1.2,0.9-2.4,1.4-3.6c1.4-3.3,2.9-7,2.1-11c-1.5-7.5-9.3-10.6-16-12.4
				c-8.1-2.2-12.8-3.5-17.6-4.8c-4.1-1.1-8.2-2.3-14.5-4c1.9-4.1,5-7.4,9.1-9.7c5.1-2.9,11.1-3.6,16.7-2L273,77.8
				c11.7,3.3,18.5,15.5,15.2,27.1l-8.4,29.9c-3.3,11.7-15.5,18.5-27.1,15.2L23.3,85.2C17.6,83.6,13,79.9,10.1,74.8z"/>
			<path class="st0" d="M325.4,140.3c-0.7-7.4-5.3-12.4-13.7-14.8c-1.9-0.6-3.9,0.6-4.5,2.5c-0.5,1.9,0.6,3.9,2.5,4.5
				c6.9,1.9,8.1,5.2,8.4,8.5c0.5,4.7-1.4,11.4-3.4,18.4l-4.1,14.5c-1.9,6.7-6.3,12.2-12.3,15.6c-6,3.4-13,4.2-19.7,2.4L158.9,158
				c-17.6-5-35.9,5.4-40.9,23c-0.5,1.9,0.6,3.9,2.5,4.5c1.9,0.6,3.9-0.6,4.5-2.5c3.9-13.8,18.2-21.9,31.9-18l119.8,33.8
				c3,0.8,6,1.3,9,1.3c5.6,0,11.1-1.4,16.2-4.3c7.7-4.3,13.3-11.4,15.7-20l4.1-14.5C324,153.4,326,146.4,325.4,140.3z"/>
			<path class="st0" d="M120.8,188.8c-11.1-3.1-22.7,3.4-25.8,14.5l-25.6,90.6c-1.5,5.4-0.8,11,1.9,15.9c2.7,4.9,7.2,8.4,12.6,9.9
				c1.9,0.5,3.8,0.8,5.7,0.8c3.5,0,7-0.9,10.2-2.7c4.9-2.7,8.4-7.2,9.9-12.6l25.6-90.6C138.4,203.5,131.9,191.9,120.8,188.8z
				 M128.3,212.7l-25.6,90.6c-1,3.5-3.3,6.4-6.5,8.2c-3.2,1.8-6.9,2.2-10.4,1.2c-3.5-1-6.4-3.3-8.2-6.5c-1.8-3.2-2.2-6.9-1.2-10.4
				l25.6-90.6c1.7-6,7.2-10,13.2-10c1.2,0,2.5,0.2,3.7,0.5c3.5,1,6.4,3.3,8.2,6.5C128.8,205.5,129.2,209.2,128.3,212.7z"/>
			<path class="st0" d="M272,102.4c1.1,0,2.1-0.7,2.5-1.9c0.4-1.4-0.4-2.8-1.8-3.2l-73.3-20.7c-1.3-0.4-2.8,0.4-3.2,1.8
				c-0.4,1.4,0.4,2.8,1.8,3.2l73.3,20.7C271.5,102.4,271.8,102.4,272,102.4z"/>
			<path class="st0" d="M102,236.4c-1.4-0.4-2.8,0.4-3.1,1.8l-14.7,52c-0.4,1.4,0.4,2.8,1.8,3.1c0.2,0.1,0.5,0.1,0.7,0.1
				c1.1,0,2.1-0.7,2.4-1.9l14.7-52C104.1,238.2,103.3,236.8,102,236.4z"/>
			<path class="st0" d="M110.3,207c-1.3-0.4-2.8,0.4-3.1,1.8l-4.7,16.7c-0.4,1.3,0.4,2.8,1.8,3.1c0.2,0.1,0.5,0.1,0.7,0.1
				c1.1,0,2.1-0.7,2.4-1.9l4.7-16.7C112.4,208.8,111.7,207.4,110.3,207z"/>
		</g>
	</g>
</g>
</svg>
