<?xml version="1.0" encoding="utf-8"?>
<!-- Generator: Adobe Illustrator 22.1.0, SVG Export Plug-In . SVG Version: 6.00 Build 0)  -->
<svg version="1.1" id="Layer_1" xmlns="http://www.w3.org/2000/svg" xmlns:xlink="http://www.w3.org/1999/xlink" x="0px" y="0px"
	 viewBox="0 0 512 512" style="enable-background:new 0 0 512 512;" xml:space="preserve">
<style type="text/css">
	.st0{fill:#16374B;}
	.st1{fill:#FFFFFF;}
	.st2{fill:#D0D1D3;}
	.st3{fill:#FFC61B;}
	.st4{fill:#EAA22F;}
	.st5{fill:#FF5419;}
	.st6{fill:#A6A8AA;}
</style>
<circle class="st0" cx="256" cy="256" r="256"/>
<rect x="154.3" y="197.7" transform="matrix(0.7071 -0.7071 0.7071 0.7071 -142.5337 240.8818)" class="st1" width="130.4" height="189.6"/>
<rect x="187.7" y="278.3" transform="matrix(0.7071 -0.7071 0.7071 0.7071 -156.3731 274.2677)" class="st2" width="130.4" height="95.2"/>
<path class="st3" d="M330.3,125.7l-63,85.5l33.5,33.5l85.5-63c21.9-16.2,25.9-46.8,8.4-64.4l0,0C377.1,99.8,346.4,103.8,330.3,125.7
	z M376.2,135.8c4.6,4.6,4.3,12.5-0.8,17.6c-5.1,5.1-13,5.5-17.6,0.8c-4.6-4.6-4.3-12.5,0.8-17.6
	C363.7,131.5,371.6,131.2,376.2,135.8z"/>
<g>
	<path class="st4" d="M394.7,117.3L394.7,117.3c-0.1-0.1-0.2-0.2-0.3-0.3l-18.4,18.4c0.1,0.1,0.2,0.2,0.3,0.3
		c4.6,4.6,4.3,12.5-0.8,17.6c-5.1,5.1-13,5.5-17.6,0.8c-0.1-0.1-0.2-0.2-0.3-0.3l-73.8,73.8l17,17l85.5-63
		C408.2,165.6,412.2,134.9,394.7,117.3z"/>
	<path class="st4" d="M358.7,265.7L246.3,153.3c-10.6-10.6-27.8-10.6-38.4,0l-36.3,36.3l150.8,150.8l36.3-36.3
		C369.3,293.6,369.3,276.4,358.7,265.7z"/>
</g>
<path class="st5" d="M302.2,209.2l-55.5,55.5l75.7,75.7l36.3-36.3c10.6-10.6,10.6-27.8,0-38.4L302.2,209.2z"/>
<g>
	
		<rect x="120.1" y="265.5" transform="matrix(0.7071 -0.7071 0.7071 0.7071 -143.6299 191.3455)" class="st2" width="78.2" height="7.2"/>
	
		<rect x="131" y="276.4" transform="matrix(0.7071 -0.7071 0.7071 0.7071 -148.1412 202.2587)" class="st2" width="78.2" height="7.2"/>
</g>
<g>
	
		<rect x="209.7" y="355.1" transform="matrix(0.7071 -0.7071 0.7071 0.7071 -180.7625 280.9889)" class="st6" width="78.2" height="7.2"/>
	
		<rect x="192.9" y="338.3" transform="matrix(0.7071 -0.7071 0.7071 0.7071 -173.8174 264.2308)" class="st6" width="78.2" height="7.2"/>
	
		<rect x="176.2" y="321.6" transform="matrix(0.7071 -0.7071 0.7071 0.7071 -166.8592 247.4672)" class="st6" width="78.2" height="7.2"/>
</g>
</svg>
