<?xml version="1.0" encoding="utf-8"?>
<!-- Generator: Adobe Illustrator 22.1.0, SVG Export Plug-In . SVG Version: 6.00 Build 0)  -->
<svg version="1.1" id="Capa_1" xmlns="http://www.w3.org/2000/svg" xmlns:xlink="http://www.w3.org/1999/xlink" x="0px" y="0px"
	 viewBox="0 0 58 58" style="enable-background:new 0 0 58 58;" xml:space="preserve">
<style type="text/css">
	.st0{fill:#556080;}
	.st1{fill:#7383BF;}
	.st2{fill:#16374B;}
	.st3{fill:#404960;}
	.st4{fill:#FFFFFF;}
</style>
<g>
	<path class="st0" d="M29,0C13,0,0,13,0,29c0,8.6,3.8,16.4,9.8,21.7C15,46.5,21.7,44,28.9,44c7.3,0,14,2.5,19.3,6.7
		c6-5.3,9.8-13.1,9.8-21.7C58,13,45,0,29,0z"/>
</g>
<g>
	<path class="st1" d="M29,3c-0.6,0-1,0.4-1,1v2c0,0.6,0.4,1,1,1s1-0.4,1-1V4C30,3.4,29.6,3,29,3z"/>
	<path class="st1" d="M54.5,28h-2c-0.6,0-1,0.4-1,1s0.4,1,1,1h2c0.6,0,1-0.4,1-1S55.1,28,54.5,28z"/>
	<path class="st1" d="M6.5,29c0-0.6-0.4-1-1-1h-2c-0.6,0-1,0.4-1,1s0.4,1,1,1h2C6.1,30,6.5,29.6,6.5,29z"/>
	<path class="st1" d="M42.3,6.6c-0.5-0.3-1.1-0.1-1.4,0.4l-1,1.7c-0.3,0.5-0.1,1.1,0.4,1.4c0.2,0.1,0.3,0.1,0.5,0.1
		c0.3,0,0.7-0.2,0.9-0.5l1-1.7C42.9,7.4,42.7,6.8,42.3,6.6z"/>
	<path class="st1" d="M51.6,41.4l-1.7-1c-0.5-0.3-1.1-0.1-1.4,0.4c-0.3,0.5-0.1,1.1,0.4,1.4l1.7,1c0.2,0.1,0.3,0.1,0.5,0.1
		c0.3,0,0.7-0.2,0.9-0.5C52.2,42.3,52.1,41.7,51.6,41.4z"/>
	<path class="st1" d="M9.1,16.9l-1.7-1c-0.5-0.3-1.1-0.1-1.4,0.4c-0.3,0.5-0.1,1.1,0.4,1.4l1.7,1c0.2,0.1,0.3,0.1,0.5,0.1
		c0.3,0,0.7-0.2,0.9-0.5C9.8,17.8,9.6,17.2,9.1,16.9z"/>
	<path class="st1" d="M17.1,6.9c-0.3-0.5-0.9-0.6-1.4-0.4c-0.5,0.3-0.6,0.9-0.4,1.4l1,1.7c0.2,0.3,0.5,0.5,0.9,0.5
		c0.2,0,0.3,0,0.5-0.1c0.5-0.3,0.6-0.9,0.4-1.4L17.1,6.9z"/>
	<path class="st1" d="M49.1,18.3c0.2,0,0.3,0,0.5-0.1l1.7-1c0.5-0.3,0.6-0.9,0.4-1.4c-0.3-0.5-0.9-0.6-1.4-0.4l-1.7,1
		c-0.5,0.3-0.6,0.9-0.4,1.4C48.4,18.1,48.8,18.3,49.1,18.3z"/>
	<path class="st1" d="M7.9,39.9l-1.7,1c-0.5,0.3-0.6,0.9-0.4,1.4c0.2,0.3,0.5,0.5,0.9,0.5c0.2,0,0.3,0,0.5-0.1l1.7-1
		c0.5-0.3,0.6-0.9,0.4-1.4C9,39.8,8.4,39.6,7.9,39.9z"/>
</g>
<path class="st2" d="M9.8,50.7C14.9,55.2,21.6,58,29,58c7.4,0,14.1-2.7,19.2-7.3c-5.3-4.2-12-6.7-19.3-6.7C21.7,44,15,46.5,9.8,50.7
	z"/>
<path class="st3" d="M42,17.2c-0.4-0.4-1-0.4-1.4,0l-8.4,8.4c-1.5-1-3.7-0.8-5,0.5c-0.8,0.8-1.2,1.8-1.2,2.8s0.4,2.1,1.2,2.8
	c0.8,0.8,1.8,1.2,2.8,1.2s2.1-0.4,2.8-1.2c0.8-0.8,1.2-1.8,1.2-2.8c0-0.6-0.2-1.3-0.5-1.8l8.5-8.5C42.4,18.2,42.4,17.6,42,17.2z
	 M31.4,30.3c-0.8,0.8-2.1,0.8-2.8,0c-0.4-0.4-0.6-0.9-0.6-1.4s0.2-1,0.6-1.4s0.9-0.6,1.4-0.6s1,0.2,1.4,0.6s0.6,0.9,0.6,1.4
	S31.8,29.9,31.4,30.3z"/>
<path class="st4" d="M41,16.2c-0.4-0.4-1-0.4-1.4,0l-8.4,8.4c-1.5-1-3.7-0.8-5,0.5c-0.8,0.8-1.2,1.8-1.2,2.8s0.4,2.1,1.2,2.8
	c0.8,0.8,1.8,1.2,2.8,1.2s2.1-0.4,2.8-1.2c0.8-0.8,1.2-1.8,1.2-2.8c0-0.6-0.2-1.3-0.5-1.8l8.5-8.5C41.4,17.2,41.4,16.6,41,16.2z
	 M30.4,29.3c-0.8,0.8-2.1,0.8-2.8,0c-0.4-0.4-0.6-0.9-0.6-1.4s0.2-1,0.6-1.4s0.9-0.6,1.4-0.6s1,0.2,1.4,0.6s0.6,0.9,0.6,1.4
	S30.8,28.9,30.4,29.3z"/>
</svg>
