<?xml version="1.0" encoding="utf-8"?>
<!-- Generator: Adobe Illustrator 22.1.0, SVG Export Plug-In . SVG Version: 6.00 Build 0)  -->
<svg version="1.1" id="Layer_1" xmlns="http://www.w3.org/2000/svg" xmlns:xlink="http://www.w3.org/1999/xlink" x="0px" y="0px"
	 viewBox="0 0 42 61" style="enable-background:new 0 0 42 61;" xml:space="preserve">
<style type="text/css">
	.st0{fill:none;stroke:#5B92E2;stroke-width:1.774;stroke-linecap:round;stroke-linejoin:round;}
</style>
<title>chi-icon@3x</title>
<g>
	<path class="st0" d="M11.3,56.6l4.3-47.3h11.7l4.2,47.2 M25,1.6v7.7 M18,0.8v7.7"/>
	<path class="st0" d="M21.5,12.3l6.2,4.7L14.6,27.5L29.3,40L13.2,51.1l10.9,7.8"/>
	<path class="st0" d="M21.5,12.3L15.2,17l13.2,10.5L13.7,40l16.1,11.1l-10.9,7.8"/>
	<path class="st0" d="M14.5,21c-7.6,2.8-13,10-13,18.6c0,7.3,3.9,13.6,9.8,17c3,1.8,6.5,2.7,10,2.7c3.7,0,7.2-1,10.2-2.8
		c5.7-3.5,9.5-9.8,9.5-17C41,31,35.7,23.8,28.2,21"/>
</g>
</svg>
