<?xml version="1.0" encoding="utf-8"?>
<!-- Generator: Adobe Illustrator 22.1.0, SVG Export Plug-In . SVG Version: 6.00 Build 0)  -->
<svg version="1.1" id="Layer_1" xmlns="http://www.w3.org/2000/svg" xmlns:xlink="http://www.w3.org/1999/xlink" x="0px" y="0px"
	 viewBox="0 0 42 54" style="enable-background:new 0 0 42 54;" xml:space="preserve">
<style type="text/css">
	.st0{fill:none;stroke:#5B92E2;stroke-width:1.774;stroke-linecap:round;stroke-linejoin:round;}
	.st1{fill:#5B92E2;stroke:#5B92E2;stroke-linecap:round;}
</style>
<title>your-city-icon@3x</title>
<g>
	<path class="st0" d="M33.8,18.1c4.1,3.6,6.6,8.8,6.6,14.6c0,7.1-3.8,13.3-9.5,16.7c-3,1.8-6.5,2.8-10,2.8c-3.6,0-6.9-1-9.8-2.7
		c-5.8-3.4-9.6-9.6-9.6-16.8c0-8.4,5.3-15.6,12.8-18.3"/>
	<path class="st1" d="M20.4,31.5c0.9,0,1.6,0.8,1.6,1.6c0,0.9-0.8,1.6-1.6,1.6c-0.9,0-1.6-0.7-1.6-1.6
		C18.8,32.3,19.5,31.5,20.4,31.5z M12.2,7.6C12.9,3.9,16.3,1,20.9,1c5.2,0,8.9,3.8,8.9,8.5c0,7.7-10,8-10,12.1
		c0,1.5,1.2,2.7,1.5,3.1l-0.7,0.6c-0.3-0.3-1.7-1.8-1.7-3.7c0-4.8,10-4.8,10-12.1c0-4.2-3.3-7.6-8-7.6c-4,0-7.2,2.5-7.8,6
		C13,7.9,12.2,7.6,12.2,7.6z"/>
</g>
</svg>
