<?xml version="1.0" encoding="utf-8"?>
<!-- Generator: Adobe Illustrator 22.1.0, SVG Export Plug-In . SVG Version: 6.00 Build 0)  -->
<svg version="1.1" id="Layer_1" xmlns="http://www.w3.org/2000/svg" xmlns:xlink="http://www.w3.org/1999/xlink" x="0px" y="0px"
	 viewBox="0 0 496.2 496.2" style="enable-background:new 0 0 496.2 496.2;" xml:space="preserve">
<style type="text/css">
	.st0{fill:#16374B;}
	.st1{fill:#FFFFFF;}
	.st2{fill:#EDC92F;}
	.st3{fill:#BCBBBB;}
	.st4{fill:#B29A10;}
</style>
<path class="st0" d="M0,248.1c0,137,111.1,248.1,248.1,248.1s248.1-111.1,248.1-248.1S385.1,0,248.1,0S0,111.1,0,248.1z"/>
<path class="st1" d="M122.7,268.6c0-3.9,3.1-7,7-7h236.6c3.9,0,7,3.1,7,7v36.5c0,0-250.6,0.7-250.6,0L122.7,268.6L122.7,268.6z"/>
<path class="st2" d="M381.5,348.4H203.9l-7.4-10.1l-7.1,10.1h-74.9l8.2-64.9c0,0,250.6-0.7,250.6,0L381.5,348.4z"/>
<path class="st3" d="M248.2,276.4c7.3,0,13.3-5.9,13.3-13.3V0.4c-4.4-0.2-8.9-0.4-13.4-0.4c-4.4,0-8.8,0.1-13.1,0.3v262.8
	C235,270.5,240.9,276.4,248.2,276.4z"/>
<path class="st1" d="M235,239.9c0-7.3,26.5-7.3,26.5,0v33.2c0,7.3-26.5,7.3-26.5,0V239.9z"/>
<g>
	<rect x="216.6" y="292.1" class="st4" width="1.3" height="46.9"/>
	<rect x="196" y="292.1" class="st4" width="1.3" height="36.3"/>
	<rect x="175.5" y="292.1" class="st4" width="1.3" height="46.9"/>
	<rect x="154.9" y="292.1" class="st4" width="1.3" height="46.9"/>
	<rect x="134.3" y="292.1" class="st4" width="1.3" height="46.9"/>
	<rect x="237.2" y="292.1" class="st4" width="1.3" height="46.9"/>
	<rect x="257.8" y="292.1" class="st4" width="1.3" height="46.9"/>
	<rect x="278.3" y="292.1" class="st4" width="1.3" height="46.9"/>
	<rect x="298.9" y="292.1" class="st4" width="1.3" height="46.9"/>
	<rect x="319.5" y="292.1" class="st4" width="1.3" height="46.9"/>
	<rect x="340" y="292.1" class="st4" width="1.3" height="46.9"/>
	<rect x="360.6" y="292.1" class="st4" width="1.3" height="46.9"/>
</g>
</svg>
