<?xml version="1.0" encoding="utf-8"?>
<!-- Generator: Adobe Illustrator 22.1.0, SVG Export Plug-In . SVG Version: 6.00 Build 0)  -->
<svg version="1.1" id="Capa_1" xmlns="http://www.w3.org/2000/svg" xmlns:xlink="http://www.w3.org/1999/xlink" x="0px" y="0px"
	 viewBox="0 0 74.2 74.2" style="enable-background:new 0 0 74.2 74.2;" xml:space="preserve">
<style type="text/css">
	.st0{fill:#16374B;}
</style>
<path class="st0" d="M14.9,20.4c0-0.8,0.1-3.2,1.7-3.8c1.6-0.6,3.3,1.1,3.7,1.4c0.4,0.4,0.4,1,0,1.4c-0.4,0.4-1,0.4-1.4,0
	c-0.5-0.6-1.3-1-1.5-0.9c0,0-0.4,0.3-0.4,2c-0.1,4.6,3.4,5.8,3.5,5.9c0.3,0.1,0.6,0.4,0.6,0.7l0.1,0.2c0,0.1,0,0.1,0,0.2
	C22.1,39.2,31.5,43,35.8,43s13.7-3.8,14.7-15.6c0-0.1,0-0.1,0-0.2l0.1-0.2c0.1-0.3,0.3-0.6,0.6-0.7c0.1,0,3.6-1.3,3.5-5.9
	c0-1.7-0.4-2-0.4-2c-0.2-0.1-1,0.4-1.5,0.9c-0.4,0.4-1,0.4-1.4,0c-0.4-0.4-0.4-1,0-1.4c0.3-0.3,2-2.1,3.7-1.4c1.6,0.6,1.7,3,1.7,3.8
	c0.1,4.4-2.5,6.7-4.3,7.6c-1.2,11.7-10.4,17-16.7,17s-15.5-5.3-16.7-17C17.4,27.1,14.7,24.7,14.9,20.4z M28.4,46.3l-4.7,2.2
	l-0.4-7.2c0-0.6-0.5-1-1.1-0.9c-0.6,0-1,0.5-0.9,1.1l0.1,1.4c-3.6,1.3-19.8,8.6-19.8,28c0,0.6,0.4,1,1,1s1-0.4,1-1
	c0-17.5,13.8-24.2,17.9-25.9l0.3,5.2c0,0.3,0.2,0.6,0.5,0.8c0.2,0.1,0.3,0.1,0.5,0.1c0.1,0,0.3,0,0.4-0.1l6-2.8
	c0.5-0.2,0.7-0.8,0.5-1.3C29.5,46.3,28.9,46.1,28.4,46.3z M15.9,66.3c-0.6,0-1,0.4-1,1v3.5c0,0.6,0.4,1,1,1c0.6,0,1-0.4,1-1v-3.5
	C16.9,66.8,16.4,66.3,15.9,66.3z M20.4,16.1C20.4,16.1,20.5,16.1,20.4,16.1c0.6,0,1-0.4,1-1c0-2.6,0.8-5,2.3-6.7
	c0.4-0.4,0.3-1.1-0.1-1.4s-1.1-0.3-1.4,0.1c-1.8,2.1-2.7,4.9-2.7,8C19.5,15.6,19.9,16.1,20.4,16.1z M17.5,14.5
	C17.5,14.5,17.5,14.5,17.5,14.5c0.6,0,1-0.4,1-1c0-1.2,0.6-3,0.8-3.9c0.2-0.5-0.1-1.1-0.7-1.3c-0.5-0.2-1.1,0.1-1.3,0.7
	c-0.5,1.5-0.9,3.1-0.9,4.4C16.5,14,17,14.5,17.5,14.5z M26.5,5.7h14.7c0.3,0,8,0.2,8,9.2c0,0.6,0.4,1,1,1s1-0.4,1-1
	c0-11-9.8-11.2-10-11.2H26.5c-0.6,0-1,0.4-1,1S26,5.7,26.5,5.7z M28.8,2h12.4c0.6,0,1-0.4,1-1s-0.4-1-1-1H28.8c-0.6,0-1,0.4-1,1
	S28.2,2,28.8,2z M36.5,21v8.2h-2.4c-0.6,0-1,0.4-1,1s0.4,1,1,1h3.4c0.6,0,1-0.4,1-1V21c0-0.6-0.4-1-1-1S36.5,20.5,36.5,21z
	 M62.5,71.1c0,2.1-3.2,3.1-6.1,3.1c-2.9,0-5.9-0.9-6.1-2.9c0,0,0,0,0,0l-2.9-18.9c0-0.1,0-0.2-0.1-0.4l0-0.1c0,0,0,0,0,0
	c0,0,0-0.1,0-0.1c0-0.4,0.1-0.8,0.3-1.1l-5.4-2.6c-0.5-0.2-0.7-0.8-0.5-1.3c0.2-0.5,0.8-0.7,1.3-0.5l4.7,2.2l0.4-7.2
	c0-0.6,0.5-1,1.1-0.9c0.6,0,1,0.5,0.9,1.1l-0.1,1.5c2.8,0.8,6.5,3,8.2,4.6c0,0,0,0.1,0.1,0.1c3.8,0.4,7.1,1.8,7.1,4.2
	c0,2.8-4.5,4.3-9,4.3c-2.4,0-4.8-0.4-6.6-1.3L52,68.9c1.2-0.6,2.8-0.9,4.4-0.9C59.4,68,62.5,69,62.5,71.1z M56.4,49.5
	c-4.5,0-7,1.5-7,2.2l0,0.2c0.3,0.8,2.8,2.1,7,2.1c4.6,0,7-1.5,7-2.3S61,49.5,56.4,49.5z M50,45l-0.2,3.9c1.4-0.7,3.3-1.1,5.3-1.3
	C53.5,46.5,51.6,45.5,50,45z M60.5,71.1C60.4,70.8,59,70,56.4,70c-2.6,0-4,0.8-4.1,1.1c0.1,0.3,1.5,1.1,4.1,1.1
	C59,72.2,60.4,71.4,60.5,71.1z M72.7,60l0,6.9c0,3-2.4,5.4-5.4,5.4s-5.5-2.4-5.5-5.4l0-6.9c0-1.5,0-3.2,1.2-4.4
	c0.9-0.9,2.3-1.3,4.3-1.3s3.4,0.4,4.3,1.3C72.7,56.8,72.7,58.5,72.7,60z M70.1,57c-0.5-0.5-1.5-0.7-2.9-0.7s-2.4,0.3-2.9,0.7
	c-0.4,0.4-0.5,1.1-0.6,1.8h2.3c0.6,0,1,0.4,1,1s-0.4,1-1,1h-2.3v1.8h2.3c0.6,0,1,0.4,1,1s-0.4,1-1,1h-2.3v1.7h2.3c0.6,0,1,0.4,1,1
	s-0.4,1-1,1h-2c0.5,1.2,1.7,2,3.1,2c1.9,0,3.4-1.5,3.4-3.4l0-7C70.7,58.8,70.7,57.6,70.1,57z M35.8,49c-0.6,0-1,0.4-1,1v21.3
	c0,0.6,0.4,1,1,1s1-0.4,1-1V50C36.8,49.5,36.4,49,35.8,49z M56.9,58.5c1.6,0,2.9,1.7,2.9,3.8s-1.3,3.8-2.9,3.8
	c-1.6,0-2.9-1.7-2.9-3.8C54,60.2,55.3,58.5,56.9,58.5z M57.2,60.2c-0.1-0.6-0.3-0.9-0.3-0.9s-0.2,0.4-0.3,0.9
	c-0.1,0.6-0.2,1.3-0.2,2c0,0.7,0.1,1.5,0.2,2c0.1,0.6,0.3,0.9,0.3,0.9s0.2-0.4,0.3-0.9c0.1-0.6,0.2-1.3,0.2-2
	C57.4,61.5,57.4,60.8,57.2,60.2z"/>
</svg>
