<?xml version="1.0" encoding="utf-8"?>
<!-- Generator: Adobe Illustrator 22.1.0, SVG Export Plug-In . SVG Version: 6.00 Build 0)  -->
<svg version="1.1" id="Layer_1" xmlns="http://www.w3.org/2000/svg" xmlns:xlink="http://www.w3.org/1999/xlink" x="0px" y="0px"
	 viewBox="0 0 512 512" style="enable-background:new 0 0 512 512;" xml:space="preserve">
<style type="text/css">
	.st0{fill:#16374B;}
	.st1{fill:#FFC61B;}
	.st2{fill:#EAA22F;}
	.st3{fill:#FFFFFF;}
	.st4{fill:#D0D1D3;}
	.st5{fill:#FF5419;}
	.st6{fill:#C92F00;}
</style>
<circle class="st0" cx="256" cy="256" r="256"/>
<path class="st1" d="M221.1,296.3c-2,0-4-0.8-5.5-2.3c-3-3-3-7.9,0-11l24.2-24.2c2.8-2.8,4.4-6.6,4.4-10.6s-1.6-7.7-4.4-10.6
	l-49.4-49.4c-5.5-5.5-8.5-12.8-8.5-20.5c0-7.8,3-15,8.5-20.5l35.2-35.2c1.5-1.5,3.4-2.3,5.5-2.3s4,0.8,5.5,2.3L397.5,273
	c3,3,3,7.9,0,11c-3,3-7.9,3-11,0L231.1,128.5l-29.8,29.8c-5.3,5.3-5.3,13.8,0,19.1l49.4,49.4c11.9,11.9,11.9,31.2,0,43.1L226.6,294
	C225,295.5,223.1,296.3,221.1,296.3z"/>
<g>
	<path class="st2" d="M221.1,296.3c2,0,4-0.8,5.5-2.3l24.2-24.2c5.5-5.5,8.4-12.5,8.8-19.6L215.7,294
		C217.2,295.5,219.1,296.3,221.1,296.3z"/>
	<path class="st2" d="M397.5,272.9l-80.4-80.4l-11,11l80.4,80.4c3,3,7.9,3,11,0C400.6,280.9,400.6,276,397.5,272.9z"/>
</g>
<path class="st3" d="M340.3,287.1l-113-113c-7.7-7.7-7.7-20.1,0-27.8l32.5-32.5c7.7-7.7,20.1-7.7,27.8,0l113,113
	c7.7,7.7,7.7,20.1,0,27.8l-32.5,32.5C360.5,294.8,348,294.8,340.3,287.1z"/>
<path class="st4" d="M400.7,226.7l-58.8-58.8l-60.3,60.3l58.8,58.8c7.7,7.7,20.1,7.7,27.8,0l32.5-32.5
	C408.4,246.9,408.4,234.4,400.7,226.7z"/>
<path class="st5" d="M131.8,400.3l-22.6-22.5c-4.9-4.9-4.9-12.8,0-17.7l82.9-82.9c4.9-4.9,12.8-4.9,17.7,0l22.6,22.5
	c4.9,4.9,4.9,12.8,0,17.7l-82.9,82.9C144.6,405.2,136.7,405.2,131.8,400.3z"/>
<path class="st6" d="M221.1,288.6L120.6,389.1l11.2,11.2c4.9,4.9,12.8,4.9,17.7,0l82.9-82.9c4.9-4.9,4.9-12.8,0-17.7L221.1,288.6z"
	/>
</svg>
