<?xml version="1.0" encoding="utf-8"?>
<!-- Generator: Adobe Illustrator 22.1.0, SVG Export Plug-In . SVG Version: 6.00 Build 0)  -->
<svg version="1.1" id="Layer_1" xmlns="http://www.w3.org/2000/svg" xmlns:xlink="http://www.w3.org/1999/xlink" x="0px" y="0px"
	 viewBox="0 0 512 512" style="enable-background:new 0 0 512 512;" xml:space="preserve">
<style type="text/css">
	.st0{fill:#DBD6D2;}
	.st1{fill:#EDE7E9;}
	.st2{fill:#16374B;}
	.st3{fill:#71C3AA;}
	.st4{fill:#25AE88;}
</style>
<path class="st0" d="M35.3,494.3H17.7c-5.3,0-8.8-3.5-8.8-8.8s3.5-8.8,8.8-8.8h17.7c5.3,0,8.8,3.5,8.8,8.8S40.6,494.3,35.3,494.3"/>
<path class="st1" d="M53,476.7H459V35.3H53V476.7z"/>
<path class="st2" d="M88.3,476.7h335.4V70.6H88.3V476.7z"/>
<g>
	<path class="st0" d="M476.7,476.7H35.3v17.7c0,9.7,7.9,17.7,17.7,17.7H459c9.7,0,17.7-7.9,17.7-17.7L476.7,476.7L476.7,476.7z"/>
	<path class="st0" d="M459,0H53c-9.7,0-17.7,7.9-17.7,17.7S43.3,35.3,53,35.3H459c9.7,0,17.7-7.9,17.7-17.7S468.7,0,459,0"/>
	<path class="st0" d="M494.3,494.3h-17.7c-5.3,0-8.8-3.5-8.8-8.8s3.5-8.8,8.8-8.8h17.7c5.3,0,8.8,3.5,8.8,8.8
		S499.6,494.3,494.3,494.3"/>
</g>
<g>
	<path class="st1" d="M256,256c-5.3,0-8.8-3.5-8.8-8.8v-35.3c0-5.3,3.5-8.8,8.8-8.8s8.8,3.5,8.8,8.8v35.3
		C264.8,251.6,261.3,256,256,256"/>
	<path class="st1" d="M256,256c-9.7,0-17.7,7.9-17.7,17.7s7.9,17.7,17.7,17.7s17.7-7.9,17.7-17.7S265.7,256,256,256 M256,309
		c-19.4,0-35.3-15.9-35.3-35.3s15.9-35.3,35.3-35.3s35.3,15.9,35.3,35.3S275.4,309,256,309"/>
</g>
<path class="st3" d="M88.3,211.9h335.4V70.6H88.3V211.9z"/>
<g>
	<path class="st4" d="M114.8,114.8c5.3,0,8.8-3.5,8.8-8.8c0-5.3-3.5-8.8-8.8-8.8H88.3v17.7L114.8,114.8L114.8,114.8z"/>
	<path class="st4" d="M132.4,150.1c5.3,0,8.8-3.5,8.8-8.8s-3.5-8.8-8.8-8.8H88.3v17.7L132.4,150.1L132.4,150.1z"/>
	<path class="st4" d="M150.1,185.4c5.3,0,8.8-3.5,8.8-8.8s-3.5-8.8-8.8-8.8H88.3v17.7L150.1,185.4L150.1,185.4z"/>
	<path class="st4" d="M361.9,97.1c-5.3,0-8.8,3.5-8.8,8.8c0,5.3,3.5,8.8,8.8,8.8h61.8V97.1H361.9z"/>
	<path class="st4" d="M379.6,132.4c-5.3,0-8.8,3.5-8.8,8.8s3.5,8.8,8.8,8.8h44.1v-17.7L379.6,132.4L379.6,132.4z"/>
	<path class="st4" d="M397.2,167.7c-5.3,0-8.8,3.5-8.8,8.8s3.5,8.8,8.8,8.8h26.5v-17.7L397.2,167.7L397.2,167.7z"/>
</g>
</svg>
